<svg xmlns="http://www.w3.org/2000/svg" width="34.978" height="32.008" viewBox="0 0 34.978 32.008">
  <path id="Forma_1" data-name="Forma 1" d="M1990.845,4649.019h-21.717v-17h29.859v17Zm2.171-2.092.886-.854a1.555,1.555,0,0,1-.068-.323,1.73,1.73,0,0,1,1.761-1.7,1.637,1.637,0,0,1,.337.065l.884-.852v-5.49l-.886-.853a1.881,1.881,0,0,1-.336.063,1.729,1.729,0,0,1-1.762-1.7,1.514,1.514,0,0,1,.068-.324l-.885-.853H1975.1l-.886.853a1.527,1.527,0,0,1,.068.324,1.729,1.729,0,0,1-1.761,1.7,1.709,1.709,0,0,1-.336-.064l-.884.852v5.49l.886.853a1.85,1.85,0,0,1,.335-.064,1.73,1.73,0,0,1,1.762,1.7,1.519,1.519,0,0,1-.068.325l.885.853Zm-14.285-6.406c0-2.464,2.386-4.461,5.33-4.461s5.33,2,5.33,4.461-2.386,4.459-5.33,4.459S1978.73,4642.983,1978.73,4640.521Zm12.39,0a1.761,1.761,0,1,1,1.761,1.7A1.73,1.73,0,0,1,1991.12,4640.521Zm-17.64,0a1.761,1.761,0,1,1,1.761,1.7A1.73,1.73,0,0,1,1973.48,4640.521Zm-9.471-9.7,7.144-3.766,11.906-6.279h0l7.145-3.767,3.914,6.878h0l3.51,6.174h-5.2a1.7,1.7,0,0,1,.8-.931,1.664,1.664,0,0,1,.327-.1l.351-1.158-2.738-4.814-1.2-.34a1.519,1.519,0,0,1-.258.213,1.8,1.8,0,0,1-2.393-.673,1.605,1.605,0,0,1-.106-.315l-1.2-.338-15.713,8.288-.05.167h-1.113a2,2,0,0,0-2.036,1.961v4.22Zm12.6-.761a5.608,5.608,0,0,1,2.511-2.606c2.582-1.36,5.669-.713,6.9,1.449a3.757,3.757,0,0,1,.407,1.157Zm10.713-2.772a1.761,1.761,0,1,1,1.761,1.7A1.731,1.731,0,0,1,1987.32,4627.291Z" transform="translate(-1964.009 -4617.011)" fill="#353535"/>
</svg>
