<svg xmlns="http://www.w3.org/2000/svg" width="35" height="35" viewBox="0 0 35 35">
  <g id="wall-clock" transform="translate(-1732.046 -4615.046)">
    <g id="wall-clock-2" data-name="wall-clock" transform="translate(1732 4615)">
      <path id="Forma_1" data-name="Forma 1" d="M.046,17.546a17.5,17.5,0,1,1,17.5,17.5A17.52,17.52,0,0,1,.046,17.546ZM18.467,29.5v1.832a13.715,13.715,0,0,0,5.6-1.605l-.755-1.3a.487.487,0,0,1,.176-.667.479.479,0,0,1,.244-.066.49.49,0,0,1,.423.243l.754,1.3a13.93,13.93,0,0,0,4.114-4l-1.583-.914a.921.921,0,1,1,.921-1.6l1.585.915a13.721,13.721,0,0,0,1.411-5.649l-1.5,0h0a.488.488,0,0,1,0-.975l1.5,0a13.718,13.718,0,0,0-1.408-5.564l-1.585.915a.921.921,0,0,1-.921-1.6l1.583-.914a13.925,13.925,0,0,0-4.186-4.044l-.746,1.3a.489.489,0,0,1-.424.245.48.48,0,0,1-.242-.065.488.488,0,0,1-.18-.665l.747-1.3a13.714,13.714,0,0,0-5.521-1.566V5.594a.921.921,0,0,1-1.842,0V3.762a13.715,13.715,0,0,0-5.6,1.605l.755,1.3a.487.487,0,0,1-.177.666.492.492,0,0,1-.488,0,.48.48,0,0,1-.178-.178l-.754-1.3a13.926,13.926,0,0,0-4.114,4l1.583.914a.921.921,0,1,1-.921,1.6l-1.585-.915A13.723,13.723,0,0,0,3.738,17.1l1.506,0a.487.487,0,0,1,0,.975l-1.5,0A13.718,13.718,0,0,0,5.149,23.64l1.585-.915a.921.921,0,1,1,.921,1.6l-1.583.914a13.929,13.929,0,0,0,4.186,4.044l.746-1.3a.49.49,0,0,1,.424-.245.488.488,0,0,1,.422.73l-.747,1.3a13.714,13.714,0,0,0,5.522,1.566V29.5a.921.921,0,0,1,1.842,0ZM15.644,17.919,9.616,14.575a1.157,1.157,0,1,1,1.122-2.023l5.908,3.278a1.932,1.932,0,0,1,1.8,0l5.908-3.278a1.157,1.157,0,0,1,1.122,2.023l-6.028,3.344a1.938,1.938,0,0,1-3.8,0Z"/>
    </g>
    <path id="Color_Overlay" data-name="Color Overlay" d="M1732.046,4632.545a17.5,17.5,0,1,1,17.5,17.5A17.52,17.52,0,0,1,1732.046,4632.545Zm18.421,11.953v1.833a13.718,13.718,0,0,0,5.6-1.606l-.755-1.3a.487.487,0,1,1,.843-.49l.754,1.3a13.916,13.916,0,0,0,4.115-4l-1.584-.914a.921.921,0,0,1,.922-1.6l1.585.915a13.712,13.712,0,0,0,1.411-5.648l-1.5,0h0a.482.482,0,0,1-.241-.064.488.488,0,0,1,.239-.912l1.5,0a13.7,13.7,0,0,0-1.407-5.564l-1.585.915a.921.921,0,0,1-.922-1.6l1.584-.914a13.923,13.923,0,0,0-4.186-4.043l-.747,1.3a.49.49,0,0,1-.424.245.48.48,0,0,1-.242-.065.486.486,0,0,1-.18-.664l.747-1.3a13.7,13.7,0,0,0-5.522-1.566v1.832a.921.921,0,1,1-1.842,0v-1.832a13.71,13.71,0,0,0-5.6,1.605l.756,1.3a.488.488,0,0,1-.177.666.5.5,0,0,1-.488,0,.49.49,0,0,1-.179-.179l-.754-1.3a13.933,13.933,0,0,0-4.115,4l1.584.914a.921.921,0,1,1-.921,1.6l-1.586-.915a13.714,13.714,0,0,0-1.411,5.648l1.507,0a.488.488,0,0,1,.487.487.486.486,0,0,1-.485.488l-1.5.006a13.736,13.736,0,0,0,1.407,5.563l1.586-.915a.921.921,0,0,1,.921,1.6l-1.584.914a13.94,13.94,0,0,0,4.186,4.045l.747-1.3a.488.488,0,1,1,.846.485l-.747,1.3a13.705,13.705,0,0,0,5.521,1.566V4644.5a.921.921,0,0,1,1.843,0Zm-2.824-11.579-6.028-3.345a1.156,1.156,0,1,1,1.123-2.022l5.907,3.278a1.929,1.929,0,0,1,1.8,0l5.907-3.278a1.156,1.156,0,1,1,1.123,2.022l-6.028,3.345a1.938,1.938,0,0,1-3.8,0Z" fill="#353535"/>
  </g>
</svg>
