<svg xmlns="http://www.w3.org/2000/svg" width="34" height="35.025" viewBox="0 0 34 35.025">
  <g id="woman-with-headset" transform="translate(-1499 -4614)">
    <g id="woman-with-headset-2" data-name="woman-with-headset" transform="translate(1499 4614)">
      <path id="Forma_1" data-name="Forma 1" d="M14.33,18.454A1.746,1.746,0,1,1,12.584,16.7,1.75,1.75,0,0,1,14.33,18.454ZM21.416,16.7a1.755,1.755,0,1,0,1.746,1.755A1.75,1.75,0,0,0,21.416,16.7Zm7.457,7.142v-.2a15.475,15.475,0,0,1-.7,1.677,10.468,10.468,0,0,0,.286,1.319,8.691,8.691,0,0,0,4.13,2.9,4.717,4.717,0,0,1-2.527.316A7.542,7.542,0,0,0,33.6,32.343c-3.733,3.382-9.885,3.457-14.185.831A8.565,8.565,0,0,1,17,33.549a8.565,8.565,0,0,1-2.411-.375C10.289,35.8,4.138,35.725.4,32.343a7.536,7.536,0,0,0,3.578-2.549,4.756,4.756,0,0,1-2.026-.362,9.01,9.01,0,0,0,3.312-1.969,10.5,10.5,0,0,0,.558-2.144,15.476,15.476,0,0,1-.7-1.677v.2H3.016A3.024,3.024,0,0,1,0,20.81V17.476a3.033,3.033,0,0,1,1.581-2.667c.032-4.734,1.4-8.432,4.086-10.988C8.327,1.286,12.14,0,17,0s8.673,1.286,11.333,3.821c2.682,2.556,4.055,6.254,4.086,10.988A3.033,3.033,0,0,1,34,17.476V20.81a3.024,3.024,0,0,1-3.016,3.031Zm-1.256-5.377c0-.78-.04-1.513-.1-2.223-1.361-1.251-3.85-2.195-6.989-2.528a3.808,3.808,0,0,1,1.154,1.9c-1.825-1.341-5.651-1.756-6.921-3.193h0c-2.022-1.346-2.553-3.273-2.57-2.475-.082,3.826-2.78,6.808-5.775,7.229-.019.421-.034.845-.034,1.289a13.788,13.788,0,0,0,.709,4.419c1.683,2.04,4.462,2.616,6.921,2.769a3.139,3.139,0,0,1,2.674-1.24c1.618,0,2.929.936,2.929,2.09s-1.311,2.09-2.929,2.09a3.073,3.073,0,0,1-2.729-1.335,14.36,14.36,0,0,1-5.293-1.194c2.369,3.509,6.041,5.365,8.334,5.365C20.6,31.427,27.617,26.852,27.617,18.465Zm1.826-4.021H30.6C30.411,6.183,25.72,1.819,17,1.819S3.589,6.183,3.4,14.444h1.16A14.6,14.6,0,0,1,7.24,7.609C9.409,4.8,12.693,3.381,17,3.381S24.591,4.8,26.76,7.609A14.6,14.6,0,0,1,29.443,14.444Z"/>
    </g>
    <path id="Color_Overlay" data-name="Color Overlay" d="M1518.411,4647.174a7.947,7.947,0,0,1-4.822,0c-4.3,2.626-10.451,2.551-14.185-.831a7.54,7.54,0,0,0,3.579-2.548,4.779,4.779,0,0,1-2.027-.362,9.026,9.026,0,0,0,3.313-1.97,10.449,10.449,0,0,0,.557-2.145,15.348,15.348,0,0,1-.7-1.677v.2h-2.111a3.025,3.025,0,0,1-3.016-3.032v-3.335a3.034,3.034,0,0,1,1.581-2.667c.031-4.734,1.405-8.431,4.087-10.988,2.659-2.536,6.473-3.82,11.332-3.82s8.673,1.285,11.332,3.82c2.682,2.557,4.055,6.254,4.087,10.988a3.035,3.035,0,0,1,1.581,2.668v3.334a3.025,3.025,0,0,1-3.017,3.032h-2.111v-.2a15.2,15.2,0,0,1-.7,1.676,10.6,10.6,0,0,0,.286,1.32,8.7,8.7,0,0,0,4.131,2.9,4.726,4.726,0,0,1-2.528.315,7.545,7.545,0,0,0,3.532,2.488,11.049,11.049,0,0,1-7.458,2.682A13.028,13.028,0,0,1,1518.411,4647.174Zm-2.411-1.747c3.6,0,10.617-4.576,10.617-12.962,0-.779-.04-1.512-.1-2.223-1.361-1.251-3.85-2.195-6.989-2.527a3.806,3.806,0,0,1,1.154,1.9c-1.825-1.341-5.65-1.756-6.921-3.193h0c-2.023-1.345-2.553-3.272-2.571-2.475-.082,3.825-2.78,6.808-5.775,7.229-.019.42-.035.845-.035,1.288a13.785,13.785,0,0,0,.709,4.419c1.683,2.04,4.461,2.616,6.921,2.769a3.142,3.142,0,0,1,2.675-1.241c1.617,0,2.929.936,2.929,2.09s-1.312,2.09-2.929,2.09a3.075,3.075,0,0,1-2.729-1.335,14.391,14.391,0,0,1-5.293-1.195C1510.035,4643.572,1513.707,4645.427,1516,4645.427Zm9.76-23.817a14.594,14.594,0,0,1,2.683,6.835h1.16c-.193-8.262-4.884-12.626-13.6-12.626s-13.412,4.364-13.6,12.626h1.16a14.593,14.593,0,0,1,2.683-6.835c2.169-2.807,5.453-4.229,9.76-4.229S1523.591,4618.8,1525.76,4621.61Zm-7.09,10.845a1.746,1.746,0,1,1,1.746,1.754A1.75,1.75,0,0,1,1518.67,4632.455Zm-8.832,0a1.746,1.746,0,1,1,1.746,1.754A1.75,1.75,0,0,1,1509.839,4632.455Z" fill="#353535"/>
  </g>
</svg>
